<svg xmlns="http://www.w3.org/2000/svg" width="512" height="512" viewBox="0 0 512 512" version="1.1"><path d="" stroke="none" fill="#080404" fill-rule="evenodd"/><path d="M 157.178 49.058 C 153.825 50.402, 138.807 60.857, 129.500 68.326 C 118.631 77.049, 101.501 94.970, 92.596 106.936 C 42.343 174.460, 33.857 263.199, 70.453 338.500 C 81.628 361.494, 95.121 380.303, 113.911 399.081 C 155.483 440.627, 212.040 464, 271 464 C 322.050 464, 371.576 446.487, 411.500 414.317 C 428.724 400.437, 445.469 381.882, 458.486 362.250 C 463.812 354.217, 465.173 348.085, 463.055 341.667 C 460.783 334.782, 450.976 329.006, 444.287 330.613 C 442.754 330.981, 436.100 334.117, 429.500 337.583 C 398.861 353.669, 373.086 360.214, 340 360.308 C 319.326 360.367, 303.879 358.267, 286.119 352.983 C 195.819 326.115, 139.144 236.755, 153.576 144 C 156.905 122.603, 163.336 103.630, 174.422 82.500 C 177.885 75.900, 181.019 69.246, 181.387 67.713 C 182.913 61.361, 177.824 52.078, 171.329 49.364 C 167.632 47.819, 160.644 47.668, 157.178 49.058" stroke="none" fill="#040404" fill-rule="evenodd"/></svg>