<svg xmlns="http://www.w3.org/2000/svg" width="512" height="512" viewBox="0 0 512 512" version="1.1"><path d="M 248.782 1.486 C 231.294 5.931, 217.539 18.729, 211.764 35.928 C 209.580 42.429, 209.554 43.278, 209.273 114.500 C 209.117 154.100, 208.880 188.922, 208.745 191.883 C 208.505 197.152, 208.025 196.124, 186.099 143.383 C 173.778 113.747, 162.374 86.748, 160.756 83.386 C 157.409 76.428, 150.857 69.134, 144.107 64.852 C 131.385 56.779, 112.188 55.765, 99 62.467 C 80.811 71.711, 70.144 92.803, 73.928 112.039 C 74.590 115.406, 86.176 145.912, 99.673 179.830 C 113.170 213.749, 124.638 242.625, 125.156 244 C 125.704 245.453, 119.693 240.151, 110.799 231.335 C 93.966 214.650, 88.924 210.970, 78.500 207.764 C 43.411 196.971, 7.866 225.004, 10.330 261.527 C 11.299 275.891, 15.434 283.865, 38.323 315.500 C 71.846 361.834, 108.637 403.299, 151.750 443.337 L 158 449.142 158 477.171 L 158 505.200 161.400 508.600 L 164.800 512 284.950 512 C 414.297 512, 409.218 512.198, 411.970 507.055 C 412.612 505.856, 413 493.609, 413 474.538 L 413 443.945 425.919 414.222 C 449.586 359.773, 475.006 297.183, 493.920 246.789 C 502.790 223.154, 504.045 216.984, 502.113 206.500 C 499.842 194.177, 490.006 180.615, 479.425 175.217 C 462.941 166.807, 443.584 168.906, 429.243 180.657 C 426.626 182.802, 420.836 190.307, 414.809 199.369 C 404.410 215.005, 402.500 217.619, 403.393 215 C 405.817 207.886, 434.305 103.808, 435.055 99.327 C 436.701 89.484, 434.184 77.108, 428.599 67.580 C 425.265 61.893, 415.390 52.738, 409.213 49.608 C 394.779 42.294, 379.754 42.206, 365 49.351 C 356.353 53.538, 347.179 62.711, 343.232 71.117 C 341.583 74.628, 333.994 99.193, 326.367 125.706 L 312.500 173.911 312 107.206 L 311.500 40.500 308.791 33.740 C 300.694 13.533, 284.163 1.519, 263 0.458 C 257.508 0.183, 252.477 0.546, 248.782 1.486 M 251 21.489 C 243.398 23.974, 236.950 29.691, 233 37.450 L 229.500 44.324 229.470 99.412 C 229.453 129.711, 229.341 176.697, 229.220 203.827 L 229 253.154 226.077 256.077 C 222.232 259.921, 216.411 260.149, 212.886 256.592 C 211.399 255.092, 197.687 223.392, 176.502 172.483 C 150.465 109.913, 141.697 89.838, 139.058 86.754 C 129.074 75.091, 110.327 75.113, 99.790 86.802 C 95.408 91.662, 92.546 100.279, 93.247 106.497 C 93.507 108.809, 109.309 149.918, 128.360 197.850 C 149.363 250.691, 163 286.303, 163 288.311 C 163 293.942, 156.801 298.694, 151.181 297.373 C 149.446 296.965, 136.860 285.167, 115.500 263.927 C 77.671 226.308, 76.741 225.632, 62.853 225.632 C 49.520 225.632, 38.864 232.503, 33.279 244.701 C 30.215 251.395, 29.381 259.252, 31.013 266.055 C 33.889 278.042, 74.069 332.406, 108.926 371.471 C 122.360 386.528, 148.173 412.708, 165.750 429.104 L 178 440.531 178 466.266 L 178 492 285.500 492 L 393 492 393 465.922 L 393 439.844 406.020 409.878 C 429.275 356.356, 449.789 306.175, 471.785 249 C 481.533 223.662, 482.368 220.950, 482.403 214.500 C 482.461 203.800, 477.774 196.505, 468 192.081 C 459.595 188.276, 448.245 190.146, 441.811 196.395 C 439.961 198.192, 425.960 218.571, 410.698 241.682 C 383.161 283.381, 381.105 286, 375.903 286 C 370.139 286, 365.169 279.905, 366.304 274.228 C 366.608 272.710, 377.750 232.550, 391.065 184.984 C 417.929 89.015, 417.567 90.766, 412.631 80.679 C 405.596 66.300, 389.299 60.351, 374.669 66.822 C 369.274 69.209, 362.977 75.458, 360.703 80.683 C 359.789 82.782, 348.221 122.075, 334.997 168 C 308.542 259.869, 309.993 256, 302 256 C 299.331 256, 297.231 255.243, 295.306 253.587 L 292.500 251.174 292 147.337 L 291.500 43.500 288.720 37.839 C 285.492 31.266, 279.677 25.629, 273.139 22.737 C 267.236 20.126, 256.946 19.546, 251 21.489" stroke="none" fill="#050505" fill-rule="evenodd"/><path d="M 0 256 L 0 512 82.400 512 L 164.800 512 161.400 508.600 L 158 505.200 158 477.171 L 158 449.142 151.750 443.337 C 108.637 403.299, 71.846 361.834, 38.323 315.500 C 15.434 283.865, 11.299 275.891, 10.330 261.527 C 7.866 225.004, 43.411 196.971, 78.500 207.764 C 88.924 210.970, 93.966 214.650, 110.799 231.335 C 119.693 240.151, 125.704 245.453, 125.156 244 C 124.638 242.625, 113.170 213.749, 99.673 179.830 C 86.176 145.912, 74.590 115.406, 73.928 112.039 C 70.144 92.803, 80.811 71.711, 99 62.467 C 112.188 55.765, 131.385 56.779, 144.107 64.852 C 150.857 69.134, 157.409 76.428, 160.756 83.386 C 162.374 86.748, 173.778 113.747, 186.099 143.383 C 208.025 196.124, 208.505 197.152, 208.745 191.883 C 208.880 188.922, 209.117 154.100, 209.273 114.500 C 209.554 43.278, 209.580 42.429, 211.764 35.928 C 217.550 18.696, 231.499 5.743, 248.782 1.553 C 253.755 0.347, 237.926 0.156, 127.250 0.083 L 0 0 0 256 M 269 0.691 C 286.758 3.664, 301.717 16.088, 308.791 33.740 L 311.500 40.500 312 107.206 L 312.500 173.911 326.367 125.706 C 333.994 99.193, 341.583 74.628, 343.232 71.117 C 347.179 62.711, 356.353 53.538, 365 49.351 C 379.754 42.206, 394.779 42.294, 409.213 49.608 C 415.390 52.738, 425.265 61.893, 428.599 67.580 C 434.184 77.108, 436.701 89.484, 435.055 99.327 C 434.305 103.808, 405.817 207.886, 403.393 215 C 402.500 217.619, 404.410 215.005, 414.809 199.369 C 420.836 190.307, 426.626 182.802, 429.243 180.657 C 443.584 168.906, 462.941 166.807, 479.425 175.217 C 490.006 180.615, 499.842 194.177, 502.113 206.500 C 504.045 216.984, 502.790 223.154, 493.920 246.789 C 475.006 297.183, 449.586 359.773, 425.919 414.222 L 413 443.945 413 474.538 C 413 493.522, 412.611 505.858, 411.975 507.047 C 411.411 508.100, 409.724 509.628, 408.225 510.441 C 405.791 511.762, 411.181 511.924, 458.750 511.960 L 512 512 512 256 L 512 0 389.250 0.136 C 321.737 0.211, 267.625 0.461, 269 0.691 M 251 21.489 C 243.398 23.974, 236.950 29.691, 233 37.450 L 229.500 44.324 229.470 99.412 C 229.453 129.711, 229.341 176.697, 229.220 203.827 L 229 253.154 226.077 256.077 C 222.232 259.921, 216.411 260.149, 212.886 256.592 C 211.399 255.092, 197.687 223.392, 176.502 172.483 C 150.465 109.913, 141.697 89.838, 139.058 86.754 C 129.074 75.091, 110.327 75.113, 99.790 86.802 C 95.408 91.662, 92.546 100.279, 93.247 106.497 C 93.507 108.809, 109.309 149.918, 128.360 197.850 C 149.363 250.691, 163 286.303, 163 288.311 C 163 293.942, 156.801 298.694, 151.181 297.373 C 149.446 296.965, 136.860 285.167, 115.500 263.927 C 77.671 226.308, 76.741 225.632, 62.853 225.632 C 49.520 225.632, 38.864 232.503, 33.279 244.701 C 30.215 251.395, 29.381 259.252, 31.013 266.055 C 33.889 278.042, 74.069 332.406, 108.926 371.471 C 122.360 386.528, 148.173 412.708, 165.750 429.104 L 178 440.531 178 466.266 L 178 492 285.500 492 L 393 492 393 465.922 L 393 439.844 406.020 409.878 C 429.275 356.356, 449.789 306.175, 471.785 249 C 481.533 223.662, 482.368 220.950, 482.403 214.500 C 482.461 203.800, 477.774 196.505, 468 192.081 C 459.595 188.276, 448.245 190.146, 441.811 196.395 C 439.961 198.192, 425.960 218.571, 410.698 241.682 C 383.161 283.381, 381.105 286, 375.903 286 C 370.139 286, 365.169 279.905, 366.304 274.228 C 366.608 272.710, 377.750 232.550, 391.065 184.984 C 417.929 89.015, 417.567 90.766, 412.631 80.679 C 405.596 66.300, 389.299 60.351, 374.669 66.822 C 369.274 69.209, 362.977 75.458, 360.703 80.683 C 359.789 82.782, 348.221 122.075, 334.997 168 C 308.542 259.869, 309.993 256, 302 256 C 299.331 256, 297.231 255.243, 295.306 253.587 L 292.500 251.174 292 147.337 L 291.500 43.500 288.720 37.839 C 285.492 31.266, 279.677 25.629, 273.139 22.737 C 267.236 20.126, 256.946 19.546, 251 21.489" stroke="none" fill="#fbfbfb" fill-rule="evenodd"/></svg>