<svg xmlns="http://www.w3.org/2000/svg" width="512" height="512" viewBox="0 0 512 512" version="1.1"><path d="" stroke="none" fill="#080404" fill-rule="evenodd"/><path d="M 246.240 79.804 C 241.021 81.882, 235.652 86.868, 232.709 92.370 C 230.618 96.279, 230.500 97.703, 230.500 119 C 230.500 141.500, 230.500 141.500, 233.411 146.754 C 238.305 155.587, 245.831 160, 256 160 C 266.169 160, 273.695 155.587, 278.589 146.754 C 281.500 141.500, 281.500 141.500, 281.500 119 C 281.500 97.606, 281.390 96.294, 279.258 92.306 C 272.753 80.136, 258.738 74.830, 246.240 79.804 M 140.054 123.667 C 133.568 126.046, 126.520 133.509, 124.575 140.059 C 122.596 146.724, 122.601 149.292, 124.604 156.039 C 126.036 160.861, 127.770 163.024, 140.736 176.173 C 157.421 193.091, 160.935 195.316, 171.056 195.374 C 176.542 195.406, 178.502 194.915, 183.056 192.372 C 195.293 185.538, 200.288 170.174, 194.126 158.318 C 191.650 153.554, 164.729 126.815, 160.045 124.468 C 155.196 122.038, 145.548 121.651, 140.054 123.667 M 354.500 123.529 C 352.300 124.321, 350.309 124.977, 350.075 124.985 C 348.623 125.036, 319.472 155.201, 317.862 158.318 C 315.016 163.828, 314.465 170.653, 316.346 177.083 C 318.362 183.973, 322.366 188.792, 329.144 192.486 C 333.529 194.876, 335.679 195.401, 341 195.381 C 350.876 195.344, 355.067 192.668, 371.598 175.846 C 387.088 160.084, 388.443 157.791, 388.390 147.437 C 388.301 130.046, 370.759 117.671, 354.500 123.529 M 244.500 175.647 C 202.072 182.474, 171.720 221.781, 176.821 263.292 C 180.736 295.146, 200.876 319.962, 231.500 330.663 C 239.011 333.288, 240.509 333.459, 256 333.459 C 271.491 333.459, 272.989 333.288, 280.500 330.663 C 305.445 321.946, 323.270 304.198, 331.560 279.824 C 346.136 236.969, 320.615 189.594, 276.464 177.547 C 270.538 175.930, 250.239 174.723, 244.500 175.647 M 96.500 230.207 C 93.311 231.321, 87.361 235.401, 85.195 237.959 C 82.143 241.563, 79.019 249.701, 79.010 254.072 C 78.988 264.122, 84.918 273.811, 93.753 278.162 C 98.134 280.320, 99.978 280.526, 117.681 280.841 C 132.902 281.112, 137.974 280.859, 142.245 279.617 C 150.160 277.316, 155.282 273.163, 158.640 266.323 C 165.222 252.913, 159.906 237.591, 146.507 231.351 C 141.745 229.133, 140.474 229.023, 120.500 229.089 C 108.620 229.128, 98.197 229.613, 96.500 230.207 M 365.493 231.323 C 352.074 237.648, 346.780 252.917, 353.360 266.323 C 356.718 273.163, 361.840 277.316, 369.755 279.617 C 374.046 280.865, 379.029 281.106, 394.319 280.809 C 411.983 280.465, 413.878 280.250, 418.277 278.095 C 437.479 268.687, 437.504 240.925, 418.320 231.397 C 414.977 229.737, 411.752 229.466, 392.500 229.232 C 371.180 228.972, 370.345 229.036, 365.493 231.323 M 162.500 315.217 C 160.850 315.799, 157.475 317.746, 155 319.543 C 148.017 324.613, 128.516 345.078, 125.936 350.044 C 122.768 356.143, 122.691 366.712, 125.772 372.634 C 130.633 381.980, 138.842 387.084, 149.086 387.133 C 158.843 387.180, 163.362 384.317, 179.695 367.740 C 192.233 355.015, 193.973 352.831, 195.398 348.033 C 197.396 341.304, 197.403 338.721, 195.444 332.122 C 191.485 318.792, 175.544 310.612, 162.500 315.217 M 331 316.079 C 318.428 321.763, 312.626 334.322, 316.467 347.536 C 318.046 352.966, 319.264 354.511, 332.688 368.123 C 349.070 384.735, 352.984 387.181, 363.110 387.132 C 377.517 387.064, 388.416 376.024, 388.416 361.500 C 388.416 351.942, 386.040 348.103, 370.496 332.551 C 354.947 316.993, 350.199 314.011, 341 314.032 C 337.633 314.039, 333.754 314.833, 331 316.079 M 248.994 349.874 C 241.920 352.195, 235.940 357.274, 232.362 364 C 229.689 369.024, 229.012 406.510, 231.461 413.882 C 237.720 432.728, 262.634 437.760, 275.464 422.771 C 281.464 415.761, 282.189 411.831, 281.823 388.273 C 281.544 370.334, 281.246 367.023, 279.638 364 C 277.006 359.052, 272.166 354.168, 267.529 351.780 C 263.219 349.559, 253.118 348.521, 248.994 349.874" stroke="none" fill="#040404" fill-rule="evenodd"/></svg>