<svg xmlns="http://www.w3.org/2000/svg" width="512" height="512" viewBox="0 0 512 512" version="1.1"><path d="" stroke="none" fill="#241c1c" fill-rule="evenodd"/><path d="M 228 1.067 C 178.381 7.188, 133.408 25.975, 95 56.628 C 84.098 65.329, 65.329 84.098, 56.628 95 C 29.214 129.351, 11.203 169.162, 3.246 213 C 0.804 226.453, 0.614 229.559, 0.614 256 C 0.614 282.441, 0.804 285.547, 3.246 299 C 12.986 352.661, 37.216 399.304, 74.956 437.044 C 115.974 478.062, 168.531 503.640, 226 510.554 C 240.764 512.330, 271.236 512.330, 286 510.554 C 333.732 504.812, 378.883 485.792, 417 455.372 C 427.902 446.671, 446.671 427.902, 455.372 417 C 476.799 390.152, 493.077 358.732, 502.517 326 C 506.230 313.127, 511 287.810, 511 280.980 C 511 278.856, 511.450 276.840, 512 276.500 C 512.615 276.120, 513 267.803, 513 254.882 C 513 241.137, 512.655 234.095, 512 234.500 C 511.397 234.872, 511 233.537, 511 231.138 C 511 224.205, 506.257 198.969, 502.517 186 C 490.282 143.579, 468.179 106.091, 437.044 74.956 C 399.262 37.174, 352.101 12.699, 299 3.316 C 286.604 1.125, 280.944 0.709, 260 0.448 C 246.525 0.279, 232.125 0.558, 228 1.067 M 247.920 40.479 C 236.591 46.382, 223.379 66.059, 213.326 92 C 210.697 98.786, 205.048 115.952, 205.018 117.250 C 205.008 117.662, 227.950 118, 256 118 C 284.050 118, 306.992 117.662, 306.982 117.250 C 306.952 115.952, 301.303 98.786, 298.674 92 C 288.521 65.802, 275.310 46.231, 263.860 40.429 C 257.893 37.405, 253.795 37.418, 247.920 40.479 M 181.267 51.501 C 162.180 58.333, 142.872 68.881, 124.263 82.643 C 116.454 88.418, 95.848 107.879, 90.819 114.228 L 87.832 118 126.374 118 L 164.915 118 166.991 110.750 C 173.012 89.718, 180.053 70.852, 187.184 56.647 C 189.352 52.327, 190.985 48.659, 190.813 48.494 C 190.641 48.330, 186.345 49.683, 181.267 51.501 M 321 48.550 C 321 48.822, 322.746 52.522, 324.879 56.772 C 331.946 70.850, 339.008 89.787, 345.009 110.750 L 347.085 118 385.626 118 L 424.168 118 421.181 114.228 C 416.152 107.879, 395.546 88.418, 387.737 82.643 C 374.959 73.194, 362.904 65.836, 350.500 59.917 C 339.069 54.462, 321 47.500, 321 48.550 M 57.761 165.753 C 49.688 183.147, 43.444 204.327, 40.552 224.128 C 39.698 229.974, 39 235.261, 39 235.878 C 39 236.694, 54.002 237, 93.920 237 L 148.841 237 149.362 230.750 C 149.648 227.313, 150.378 217.300, 150.984 208.500 C 152.003 193.685, 155.061 166.843, 156.594 159.250 L 157.250 156 109.769 156 L 62.288 156 57.761 165.753 M 195.527 158.250 C 192.919 169.727, 188.039 216.491, 188.013 230.250 L 188 237 256 237 L 324 237 323.987 230.250 C 323.961 216.491, 319.081 169.727, 316.473 158.250 L 315.962 156 256 156 L 196.038 156 195.527 158.250 M 355.406 159.250 C 356.826 166.285, 359.947 193.278, 360.985 207.500 C 361.587 215.750, 362.325 225.762, 362.625 229.750 L 363.171 237 418.085 237 C 457.999 237, 473 236.694, 473 235.878 C 473 235.261, 472.302 229.974, 471.448 224.128 C 468.509 204.006, 462.468 183.522, 454.231 165.750 L 449.712 156 402.231 156 L 354.750 156 355.406 159.250 M 0.425 256 C 0.425 267.825, 0.569 272.663, 0.746 266.750 C 0.923 260.837, 0.923 251.162, 0.746 245.250 C 0.569 239.338, 0.425 244.175, 0.425 256 M 39 276.122 C 39 276.739, 39.698 282.026, 40.552 287.872 C 43.444 307.673, 49.688 328.853, 57.761 346.247 L 62.288 356 109.769 356 L 157.250 356 156.594 352.750 C 155.174 345.715, 152.053 318.722, 151.015 304.500 C 150.413 296.250, 149.675 286.238, 149.375 282.250 L 148.829 275 93.915 275 C 54.001 275, 39 275.306, 39 276.122 M 188.013 281.750 C 188.039 295.509, 192.919 342.273, 195.527 353.750 L 196.038 356 256 356 L 315.962 356 316.473 353.750 C 319.089 342.236, 323.956 295.272, 323.987 281.250 L 324 275 256 275 L 188 275 188.013 281.750 M 362.625 282.250 C 362.325 286.238, 361.587 296.250, 360.985 304.500 C 359.947 318.722, 356.826 345.715, 355.406 352.750 L 354.750 356 402.231 356 L 449.712 356 454.231 346.250 C 462.468 328.478, 468.509 307.994, 471.448 287.872 C 472.302 282.026, 473 276.739, 473 276.122 C 473 275.306, 457.999 275, 418.085 275 L 363.171 275 362.625 282.250 M 90.819 397.772 C 95.848 404.121, 116.454 423.582, 124.263 429.357 C 137.041 438.806, 149.096 446.164, 161.500 452.083 C 172.931 457.538, 191 464.500, 191 463.450 C 191 463.178, 189.254 459.478, 187.121 455.228 C 180.054 441.150, 172.992 422.213, 166.991 401.250 L 164.915 394 126.374 394 L 87.832 394 90.819 397.772 M 205.018 394.750 C 205.048 396.048, 210.697 413.214, 213.326 420 C 225.885 452.409, 242.947 474, 256 474 C 269.053 474, 286.115 452.409, 298.674 420 C 301.303 413.214, 306.952 396.048, 306.982 394.750 C 306.992 394.337, 284.050 394, 256 394 C 227.950 394, 205.008 394.337, 205.018 394.750 M 345.009 401.250 C 339.008 422.213, 331.946 441.150, 324.879 455.228 C 322.746 459.478, 321 463.178, 321 463.450 C 321 464.500, 339.069 457.538, 350.500 452.083 C 362.904 446.164, 374.959 438.806, 387.737 429.357 C 395.546 423.582, 416.152 404.121, 421.181 397.772 L 424.168 394 385.626 394 L 347.085 394 345.009 401.250" stroke="none" fill="#241c24" fill-rule="evenodd"/></svg>